<mxfile host="app.diagrams.net" agent="Mozilla/5.0 (Windows NT 10.0; Win64; x64; rv:138.0) Gecko/20100101 Firefox/138.0" version="27.0.3">
  <diagram name="Collaborative Robot System" id="lQ-3y9EDnkD3Cb8YvU8H">
    <mxGraphModel grid="0" page="1" gridSize="10" guides="1" tooltips="1" connect="1" arrows="1" fold="1" pageScale="1" pageWidth="850" pageHeight="1100" math="0" shadow="0">
      <root>
        <object label="" ID="PC&#xa;" id="0">
          <mxCell />
        </object>
        <mxCell id="1" parent="0" />
        <mxCell id="TWUvUZ4dlO_ATVXOgSBD-4" value="" style="shape=parallelogram;perimeter=parallelogramPerimeter;whiteSpace=wrap;html=1;fixedSize=1;" vertex="1" parent="1">
          <mxGeometry x="30" y="240" width="290" height="60" as="geometry" />
        </mxCell>
        <mxCell id="TWUvUZ4dlO_ATVXOgSBD-15" value="" style="triangle;whiteSpace=wrap;html=1;rotation=-90;fillColor=#dae8fc;strokeColor=#6c8ebf;" vertex="1" parent="1">
          <mxGeometry x="90" y="140" width="210" height="80" as="geometry" />
        </mxCell>
        <mxCell id="TWUvUZ4dlO_ATVXOgSBD-10" value="" style="triangle;whiteSpace=wrap;html=1;fillColor=#f8cecc;strokeColor=#b85450;" vertex="1" parent="1">
          <mxGeometry x="200" y="300" width="240" height="80" as="geometry" />
        </mxCell>
        <mxCell id="TWUvUZ4dlO_ATVXOgSBD-5" value="Conveyor" style="text;strokeColor=none;fillColor=none;html=1;align=center;verticalAlign=middle;whiteSpace=wrap;rounded=0;fontSize=16;" vertex="1" parent="1">
          <mxGeometry x="60" y="210" width="60" height="30" as="geometry" />
        </mxCell>
        <mxCell id="TWUvUZ4dlO_ATVXOgSBD-6" value="Actor" style="shape=umlActor;verticalLabelPosition=bottom;verticalAlign=top;html=1;outlineConnect=0;" vertex="1" parent="1">
          <mxGeometry x="180" y="370" width="90" height="150" as="geometry" />
        </mxCell>
        <mxCell id="TWUvUZ4dlO_ATVXOgSBD-8" value="" style="shape=cylinder3;whiteSpace=wrap;html=1;boundedLbl=1;backgroundOutline=1;size=15;" vertex="1" parent="1">
          <mxGeometry x="230" y="80" width="40" height="140" as="geometry" />
        </mxCell>
        <mxCell id="TWUvUZ4dlO_ATVXOgSBD-11" value="" style="shape=cylinder3;whiteSpace=wrap;html=1;boundedLbl=1;backgroundOutline=1;size=15;rotation=-156;" vertex="1" parent="1">
          <mxGeometry x="206.73000000000002" y="76.57" width="40.58" height="142" as="geometry" />
        </mxCell>
        <mxCell id="TWUvUZ4dlO_ATVXOgSBD-12" value="Safety Lidar" style="text;strokeColor=none;fillColor=none;html=1;align=center;verticalAlign=middle;whiteSpace=wrap;rounded=0;fontSize=16;" vertex="1" parent="1">
          <mxGeometry x="390" y="360" width="60" height="30" as="geometry" />
        </mxCell>
        <mxCell id="TWUvUZ4dlO_ATVXOgSBD-13" value="UR/10e" style="text;strokeColor=none;fillColor=none;html=1;align=center;verticalAlign=middle;whiteSpace=wrap;rounded=0;fontSize=16;" vertex="1" parent="1">
          <mxGeometry x="275" y="105.00000000000001" width="60" height="30" as="geometry" />
        </mxCell>
        <mxCell id="TWUvUZ4dlO_ATVXOgSBD-16" value="" style="whiteSpace=wrap;html=1;aspect=fixed;fillColor=#dae8fc;strokeColor=#6c8ebf;" vertex="1" parent="1">
          <mxGeometry x="181.36" y="50" width="27.27" height="27.27" as="geometry" />
        </mxCell>
        <mxCell id="TWUvUZ4dlO_ATVXOgSBD-17" value="Camera" style="text;strokeColor=none;fillColor=none;html=1;align=center;verticalAlign=middle;whiteSpace=wrap;rounded=0;fontSize=16;" vertex="1" parent="1">
          <mxGeometry x="120" y="47.269999999999996" width="60" height="30" as="geometry" />
        </mxCell>
        <mxCell id="5S7341Y2FoCALGCBTKBA-9" style="edgeStyle=none;rounded=0;orthogonalLoop=1;jettySize=auto;html=1;exitX=1;exitY=0.25;exitDx=0;exitDy=0;fillColor=#e1d5e7;strokeColor=#9673a6;endArrow=none;startFill=0;" edge="1" parent="1" source="TWUvUZ4dlO_ATVXOgSBD-18">
          <mxGeometry relative="1" as="geometry">
            <mxPoint x="616" y="225" as="targetPoint" />
            <Array as="points">
              <mxPoint x="616" y="333" />
            </Array>
          </mxGeometry>
        </mxCell>
        <mxCell id="TWUvUZ4dlO_ATVXOgSBD-18" value="" style="whiteSpace=wrap;html=1;aspect=fixed;fillColor=#f8cecc;strokeColor=#b85450;" vertex="1" parent="1">
          <mxGeometry x="440" y="326.37" width="27.27" height="27.27" as="geometry" />
        </mxCell>
        <mxCell id="TWUvUZ4dlO_ATVXOgSBD-19" value="" style="shape=cylinder3;whiteSpace=wrap;html=1;boundedLbl=1;backgroundOutline=1;size=15;rotation=-156;" vertex="1" parent="1">
          <mxGeometry x="181.36" y="184.64" width="40.58" height="39.27" as="geometry" />
        </mxCell>
        <mxCell id="TWUvUZ4dlO_ATVXOgSBD-21" value="" style="shape=cylinder3;whiteSpace=wrap;html=1;boundedLbl=1;backgroundOutline=1;size=15;rotation=-150;" vertex="1" parent="1">
          <mxGeometry x="170" y="200" width="10" height="50" as="geometry" />
        </mxCell>
        <mxCell id="TWUvUZ4dlO_ATVXOgSBD-22" value="" style="shape=cylinder3;whiteSpace=wrap;html=1;boundedLbl=1;backgroundOutline=1;size=15;rotation=-150;" vertex="1" parent="1">
          <mxGeometry x="196.64999999999998" y="210" width="10" height="50" as="geometry" />
        </mxCell>
        <mxCell id="5S7341Y2FoCALGCBTKBA-4" style="edgeStyle=orthogonalEdgeStyle;rounded=0;orthogonalLoop=1;jettySize=auto;html=1;exitX=0;exitY=0.5;exitDx=0;exitDy=0;entryX=1;entryY=0.25;entryDx=0;entryDy=0;fillColor=#e1d5e7;strokeColor=#9673a6;endArrow=none;startFill=0;" edge="1" parent="1" source="TWUvUZ4dlO_ATVXOgSBD-23" target="TWUvUZ4dlO_ATVXOgSBD-25">
          <mxGeometry relative="1" as="geometry" />
        </mxCell>
        <mxCell id="TWUvUZ4dlO_ATVXOgSBD-23" value="" style="whiteSpace=wrap;html=1;aspect=fixed;shape=swimlane;fontStyle=1;startSize=23;" vertex="1" parent="1">
          <mxGeometry x="600" y="40" width="80" height="80" as="geometry">
            <mxRectangle x="600" y="40" width="50" height="44" as="alternateBounds" />
          </mxGeometry>
        </mxCell>
        <mxCell id="TWUvUZ4dlO_ATVXOgSBD-24" value="PC" style="text;strokeColor=none;fillColor=none;html=1;align=center;verticalAlign=middle;whiteSpace=wrap;rounded=0;fontSize=16;" vertex="1" parent="1">
          <mxGeometry x="680" y="100" width="60" height="30" as="geometry" />
        </mxCell>
        <mxCell id="5S7341Y2FoCALGCBTKBA-5" style="edgeStyle=orthogonalEdgeStyle;rounded=0;orthogonalLoop=1;jettySize=auto;html=1;exitX=0;exitY=0.25;exitDx=0;exitDy=0;entryX=1;entryY=0.25;entryDx=0;entryDy=0;fillColor=#e1d5e7;strokeColor=#9673a6;endArrow=none;startFill=0;" edge="1" parent="1" source="TWUvUZ4dlO_ATVXOgSBD-25" target="TWUvUZ4dlO_ATVXOgSBD-35">
          <mxGeometry relative="1" as="geometry" />
        </mxCell>
        <mxCell id="TWUvUZ4dlO_ATVXOgSBD-26" value="Router" style="text;strokeColor=none;fillColor=none;html=1;align=center;verticalAlign=middle;whiteSpace=wrap;rounded=0;fontSize=16;" vertex="1" parent="1">
          <mxGeometry x="542" y="150" width="60" height="10" as="geometry" />
        </mxCell>
        <mxCell id="TWUvUZ4dlO_ATVXOgSBD-33" value="" style="endArrow=none;html=1;rounded=0;fontSize=12;startSize=8;endSize=8;curved=1;entryX=0;entryY=0.25;entryDx=0;entryDy=0;fillColor=#dae8fc;strokeColor=#6c8ebf;" edge="1" parent="1" target="TWUvUZ4dlO_ATVXOgSBD-23">
          <mxGeometry width="50" height="50" relative="1" as="geometry">
            <mxPoint x="210" y="60" as="sourcePoint" />
            <mxPoint x="590" y="60" as="targetPoint" />
          </mxGeometry>
        </mxCell>
        <mxCell id="TWUvUZ4dlO_ATVXOgSBD-34" value="" style="endArrow=none;html=1;rounded=0;fontSize=12;startSize=8;endSize=8;curved=1;entryX=0;entryY=0.75;entryDx=0;entryDy=0;exitX=1;exitY=0.5;exitDx=0;exitDy=0;strokeColor=none;" edge="1" parent="1" source="TWUvUZ4dlO_ATVXOgSBD-25" target="TWUvUZ4dlO_ATVXOgSBD-23">
          <mxGeometry width="50" height="50" relative="1" as="geometry">
            <mxPoint x="687.2700000000004" y="84" as="sourcePoint" />
            <mxPoint x="297.27000000000044" y="84" as="targetPoint" />
          </mxGeometry>
        </mxCell>
        <mxCell id="TWUvUZ4dlO_ATVXOgSBD-35" value="" style="whiteSpace=wrap;html=1;aspect=fixed;" vertex="1" parent="1">
          <mxGeometry x="270" y="130" width="54.64" height="54.64" as="geometry" />
        </mxCell>
        <mxCell id="TWUvUZ4dlO_ATVXOgSBD-36" value="" style="endArrow=none;html=1;rounded=0;fontSize=12;startSize=8;endSize=8;curved=1;entryX=0.75;entryY=0;entryDx=0;entryDy=0;fillColor=#f8cecc;strokeColor=#b85450;" edge="1" parent="1" target="TWUvUZ4dlO_ATVXOgSBD-18">
          <mxGeometry width="50" height="50" relative="1" as="geometry">
            <mxPoint x="460" y="170" as="sourcePoint" />
            <mxPoint x="350" y="520" as="targetPoint" />
          </mxGeometry>
        </mxCell>
        <mxCell id="TWUvUZ4dlO_ATVXOgSBD-37" value="" style="endArrow=none;html=1;rounded=0;fontSize=12;startSize=8;endSize=8;curved=1;exitX=1;exitY=0.75;exitDx=0;exitDy=0;fillColor=#f8cecc;strokeColor=#b85450;" edge="1" parent="1" source="TWUvUZ4dlO_ATVXOgSBD-35">
          <mxGeometry width="50" height="50" relative="1" as="geometry">
            <mxPoint x="470" y="190" as="sourcePoint" />
            <mxPoint x="460" y="171" as="targetPoint" />
          </mxGeometry>
        </mxCell>
        <mxCell id="TWUvUZ4dlO_ATVXOgSBD-38" value="" style="whiteSpace=wrap;html=1;aspect=fixed;fillColor=#d5e8d4;strokeColor=#82b366;" vertex="1" parent="1">
          <mxGeometry x="600" y="600" width="60" height="60" as="geometry" />
        </mxCell>
        <mxCell id="TWUvUZ4dlO_ATVXOgSBD-39" value="" style="whiteSpace=wrap;html=1;aspect=fixed;fillColor=#d5e8d4;strokeColor=#82b366;" vertex="1" parent="1">
          <mxGeometry x="750" y="600" width="60" height="60" as="geometry" />
        </mxCell>
        <mxCell id="TWUvUZ4dlO_ATVXOgSBD-41" value="230 VAC" style="text;strokeColor=none;fillColor=none;html=1;align=center;verticalAlign=middle;whiteSpace=wrap;rounded=0;fontSize=16;" vertex="1" parent="1">
          <mxGeometry x="630" y="560" width="80" height="30" as="geometry" />
        </mxCell>
        <mxCell id="TWUvUZ4dlO_ATVXOgSBD-42" value="" style="shape=flexArrow;endArrow=classic;html=1;rounded=0;fontSize=12;startSize=8;endSize=8;curved=1;entryX=0.5;entryY=1;entryDx=0;entryDy=0;fillColor=#d5e8d4;strokeColor=#82b366;" edge="1" parent="1" target="TWUvUZ4dlO_ATVXOgSBD-38">
          <mxGeometry width="50" height="50" relative="1" as="geometry">
            <mxPoint x="630" y="720" as="sourcePoint" />
            <mxPoint x="500" y="700" as="targetPoint" />
          </mxGeometry>
        </mxCell>
        <mxCell id="TWUvUZ4dlO_ATVXOgSBD-43" value="" style="shape=flexArrow;endArrow=classic;html=1;rounded=0;fontSize=12;startSize=8;endSize=8;curved=1;entryX=0.5;entryY=1;entryDx=0;entryDy=0;fillColor=#d5e8d4;strokeColor=#82b366;" edge="1" parent="1">
          <mxGeometry width="50" height="50" relative="1" as="geometry">
            <mxPoint x="780" y="720" as="sourcePoint" />
            <mxPoint x="779.41" y="660" as="targetPoint" />
          </mxGeometry>
        </mxCell>
        <mxCell id="TWUvUZ4dlO_ATVXOgSBD-45" value="230 VAC" style="text;strokeColor=none;fillColor=none;html=1;align=center;verticalAlign=middle;whiteSpace=wrap;rounded=0;fontSize=16;" vertex="1" parent="1">
          <mxGeometry x="540" y="690" width="80" height="30" as="geometry" />
        </mxCell>
        <mxCell id="TWUvUZ4dlO_ATVXOgSBD-46" value="110 VAC" style="text;strokeColor=none;fillColor=none;html=1;align=center;verticalAlign=middle;whiteSpace=wrap;rounded=0;fontSize=16;" vertex="1" parent="1">
          <mxGeometry x="700" y="700" width="80" height="30" as="geometry" />
        </mxCell>
        <mxCell id="TWUvUZ4dlO_ATVXOgSBD-51" value="" style="endArrow=none;html=1;rounded=0;fontSize=12;startSize=8;endSize=8;curved=1;fillColor=#d5e8d4;strokeColor=#82b366;" edge="1" parent="1">
          <mxGeometry width="50" height="50" relative="1" as="geometry">
            <mxPoint x="750" y="560" as="sourcePoint" />
            <mxPoint x="750" y="166" as="targetPoint" />
          </mxGeometry>
        </mxCell>
        <mxCell id="TWUvUZ4dlO_ATVXOgSBD-52" value="" style="endArrow=none;html=1;rounded=0;fontSize=12;startSize=8;endSize=8;curved=1;fillColor=#d5e8d4;strokeColor=#82b366;" edge="1" parent="1">
          <mxGeometry width="50" height="50" relative="1" as="geometry">
            <mxPoint x="750" y="560" as="sourcePoint" />
            <mxPoint x="40" y="560" as="targetPoint" />
          </mxGeometry>
        </mxCell>
        <mxCell id="TWUvUZ4dlO_ATVXOgSBD-53" value="" style="endArrow=none;html=1;rounded=0;fontSize=12;startSize=8;endSize=8;curved=1;exitX=0.5;exitY=0;exitDx=0;exitDy=0;fillColor=#d5e8d4;strokeColor=#82b366;" edge="1" parent="1" source="TWUvUZ4dlO_ATVXOgSBD-38">
          <mxGeometry width="50" height="50" relative="1" as="geometry">
            <mxPoint x="760" y="570" as="sourcePoint" />
            <mxPoint x="630" y="560" as="targetPoint" />
          </mxGeometry>
        </mxCell>
        <mxCell id="TWUvUZ4dlO_ATVXOgSBD-54" value="" style="endArrow=none;html=1;rounded=0;fontSize=12;startSize=8;endSize=8;curved=1;fillColor=#d5e8d4;strokeColor=#82b366;" edge="1" parent="1">
          <mxGeometry width="50" height="50" relative="1" as="geometry">
            <mxPoint x="320" y="165" as="sourcePoint" />
            <mxPoint x="750" y="165" as="targetPoint" />
          </mxGeometry>
        </mxCell>
        <mxCell id="TWUvUZ4dlO_ATVXOgSBD-55" value="" style="shape=cylinder3;whiteSpace=wrap;html=1;boundedLbl=1;backgroundOutline=1;size=15;rotation=-165;" vertex="1" parent="1">
          <mxGeometry x="30" y="300" width="20" height="60" as="geometry" />
        </mxCell>
        <mxCell id="TWUvUZ4dlO_ATVXOgSBD-56" value="" style="whiteSpace=wrap;html=1;aspect=fixed;" vertex="1" parent="1">
          <mxGeometry x="20" y="400" width="40" height="40" as="geometry" />
        </mxCell>
        <mxCell id="TWUvUZ4dlO_ATVXOgSBD-58" value="" style="endArrow=none;html=1;rounded=0;fontSize=12;startSize=8;endSize=8;curved=1;entryX=0.5;entryY=0;entryDx=0;entryDy=0;entryPerimeter=0;exitX=0.25;exitY=0;exitDx=0;exitDy=0;" edge="1" parent="1" source="TWUvUZ4dlO_ATVXOgSBD-56" target="TWUvUZ4dlO_ATVXOgSBD-55">
          <mxGeometry width="50" height="50" relative="1" as="geometry">
            <mxPoint x="490" y="510" as="sourcePoint" />
            <mxPoint x="540" y="460" as="targetPoint" />
          </mxGeometry>
        </mxCell>
        <mxCell id="TWUvUZ4dlO_ATVXOgSBD-60" value="" style="endArrow=none;html=1;rounded=0;fontSize=12;startSize=8;endSize=8;curved=1;exitX=0.5;exitY=1;exitDx=0;exitDy=0;fillColor=#d5e8d4;strokeColor=#82b366;" edge="1" parent="1" source="TWUvUZ4dlO_ATVXOgSBD-56">
          <mxGeometry width="50" height="50" relative="1" as="geometry">
            <mxPoint x="760" y="570" as="sourcePoint" />
            <mxPoint x="40" y="560" as="targetPoint" />
          </mxGeometry>
        </mxCell>
        <mxCell id="TWUvUZ4dlO_ATVXOgSBD-61" value="Motor Controller" style="text;strokeColor=none;fillColor=none;html=1;align=center;verticalAlign=middle;whiteSpace=wrap;rounded=0;fontSize=16;" vertex="1" parent="1">
          <mxGeometry x="55" y="425" width="70" height="40" as="geometry" />
        </mxCell>
        <mxCell id="TWUvUZ4dlO_ATVXOgSBD-62" value="Conveyor&amp;nbsp; Drive" style="text;strokeColor=none;fillColor=none;html=1;align=center;verticalAlign=middle;whiteSpace=wrap;rounded=0;fontSize=16;" vertex="1" parent="1">
          <mxGeometry x="50" y="330" width="70" height="40" as="geometry" />
        </mxCell>
        <mxCell id="TWUvUZ4dlO_ATVXOgSBD-63" value="" style="ellipse;whiteSpace=wrap;html=1;fillColor=#dae8fc;strokeColor=#6c8ebf;" vertex="1" parent="1">
          <mxGeometry x="40" y="640" width="20" height="20" as="geometry" />
        </mxCell>
        <mxCell id="TWUvUZ4dlO_ATVXOgSBD-64" value="" style="ellipse;whiteSpace=wrap;html=1;fillColor=#f8cecc;strokeColor=#b85450;" vertex="1" parent="1">
          <mxGeometry x="40" y="680" width="20" height="20" as="geometry" />
        </mxCell>
        <mxCell id="TWUvUZ4dlO_ATVXOgSBD-65" value="Image Data" style="text;strokeColor=none;fillColor=none;html=1;align=center;verticalAlign=middle;whiteSpace=wrap;rounded=0;fontSize=16;" vertex="1" parent="1">
          <mxGeometry x="77.5" y="635" width="95" height="30" as="geometry" />
        </mxCell>
        <mxCell id="TWUvUZ4dlO_ATVXOgSBD-66" value="Safety Data" style="text;strokeColor=none;fillColor=none;html=1;align=center;verticalAlign=middle;whiteSpace=wrap;rounded=0;fontSize=16;" vertex="1" parent="1">
          <mxGeometry x="75" y="675" width="95" height="30" as="geometry" />
        </mxCell>
        <mxCell id="TWUvUZ4dlO_ATVXOgSBD-67" value="" style="ellipse;whiteSpace=wrap;html=1;fillColor=#d5e8d4;strokeColor=#82b366;" vertex="1" parent="1">
          <mxGeometry x="40" y="720" width="20" height="20" as="geometry" />
        </mxCell>
        <mxCell id="TWUvUZ4dlO_ATVXOgSBD-68" value="Control" style="text;strokeColor=none;fillColor=none;html=1;align=center;verticalAlign=middle;whiteSpace=wrap;rounded=0;fontSize=16;" vertex="1" parent="1">
          <mxGeometry x="72.5" y="758" width="100" height="30" as="geometry" />
        </mxCell>
        <mxCell id="TWUvUZ4dlO_ATVXOgSBD-71" value="" style="endArrow=none;html=1;rounded=0;fontSize=12;startSize=8;endSize=8;curved=1;fillColor=#d5e8d4;strokeColor=#82b366;" edge="1" parent="1">
          <mxGeometry width="50" height="50" relative="1" as="geometry">
            <mxPoint x="470" y="340" as="sourcePoint" />
            <mxPoint x="800" y="339.5" as="targetPoint" />
          </mxGeometry>
        </mxCell>
        <mxCell id="TWUvUZ4dlO_ATVXOgSBD-76" value="" style="endArrow=none;html=1;rounded=0;fontSize=12;startSize=8;endSize=8;fillColor=#d5e8d4;strokeColor=#82b366;startFill=0;&#xa;edgeStyle=orthogonalEdgeStyle&#xa;rounded=0;entryX=1;entryY=0.5;entryDx=0;entryDy=0;" edge="1" parent="1" target="TWUvUZ4dlO_ATVXOgSBD-23">
          <mxGeometry relative="1" as="geometry">
            <mxPoint x="800" y="600" as="sourcePoint" />
            <mxPoint x="800" y="80" as="targetPoint" />
            <Array as="points">
              <mxPoint x="801" y="78" />
            </Array>
          </mxGeometry>
        </mxCell>
        <mxCell id="TWUvUZ4dlO_ATVXOgSBD-77" value="24VCD" style="edgeLabel;resizable=0;html=1;;align=center;verticalAlign=middle;" connectable="0" vertex="1" parent="TWUvUZ4dlO_ATVXOgSBD-76">
          <mxGeometry relative="1" as="geometry" />
        </mxCell>
        <mxCell id="TWUvUZ4dlO_ATVXOgSBD-90" value="" style="whiteSpace=wrap;html=1;aspect=fixed;" vertex="1" parent="1">
          <mxGeometry x="286" y="220" width="20" height="20" as="geometry" />
        </mxCell>
        <mxCell id="TWUvUZ4dlO_ATVXOgSBD-92" value="" style="endArrow=none;dashed=1;html=1;rounded=0;fontSize=12;startSize=8;endSize=8;curved=1;entryX=0.25;entryY=1;entryDx=0;entryDy=0;exitX=0.822;exitY=1.053;exitDx=0;exitDy=0;exitPerimeter=0;" edge="1" parent="1">
          <mxGeometry width="50" height="50" relative="1" as="geometry">
            <mxPoint x="272.9999999999999" y="293.18000000000006" as="sourcePoint" />
            <mxPoint x="295.62" y="230" as="targetPoint" />
          </mxGeometry>
        </mxCell>
        <mxCell id="TWUvUZ4dlO_ATVXOgSBD-93" value="Lightbeam" style="text;strokeColor=none;fillColor=none;html=1;align=center;verticalAlign=middle;whiteSpace=wrap;rounded=0;fontSize=16;" vertex="1" parent="1">
          <mxGeometry x="290" y="197" width="60" height="30" as="geometry" />
        </mxCell>
        <mxCell id="5S7341Y2FoCALGCBTKBA-1" value="" style="ellipse;whiteSpace=wrap;html=1;fillColor=#e1d5e7;strokeColor=#9673a6;" vertex="1" parent="1">
          <mxGeometry x="43" y="763" width="20" height="20" as="geometry" />
        </mxCell>
        <mxCell id="5S7341Y2FoCALGCBTKBA-2" value="Power" style="text;strokeColor=none;fillColor=none;html=1;align=center;verticalAlign=middle;whiteSpace=wrap;rounded=0;fontSize=16;" vertex="1" parent="1">
          <mxGeometry x="75" y="720" width="100" height="30" as="geometry" />
        </mxCell>
        <mxCell id="5S7341Y2FoCALGCBTKBA-7" style="edgeStyle=none;rounded=0;orthogonalLoop=1;jettySize=auto;html=1;exitX=1;exitY=0.5;exitDx=0;exitDy=0;fillColor=#d5e8d4;strokeColor=#82b366;endArrow=none;startFill=0;" edge="1" parent="1" source="TWUvUZ4dlO_ATVXOgSBD-25">
          <mxGeometry relative="1" as="geometry">
            <mxPoint x="800.066650390625" y="145" as="targetPoint" />
          </mxGeometry>
        </mxCell>
        <mxCell id="5S7341Y2FoCALGCBTKBA-8" style="edgeStyle=none;rounded=0;orthogonalLoop=1;jettySize=auto;html=1;exitX=0.5;exitY=1;exitDx=0;exitDy=0;entryX=0.25;entryY=1;entryDx=0;entryDy=0;fillColor=#e1d5e7;strokeColor=#9673a6;endArrow=none;startFill=0;" edge="1" parent="1" source="TWUvUZ4dlO_ATVXOgSBD-25" target="TWUvUZ4dlO_ATVXOgSBD-93">
          <mxGeometry relative="1" as="geometry">
            <mxPoint x="617" y="217.26666259765625" as="targetPoint" />
            <Array as="points">
              <mxPoint x="617" y="225" />
            </Array>
          </mxGeometry>
        </mxCell>
        <mxCell id="TWUvUZ4dlO_ATVXOgSBD-25" value="" style="whiteSpace=wrap;html=1;aspect=fixed;" vertex="1" parent="1">
          <mxGeometry x="602" y="130" width="30" height="30" as="geometry" />
        </mxCell>
        <mxCell id="5S7341Y2FoCALGCBTKBA-10" style="edgeStyle=none;rounded=0;orthogonalLoop=1;jettySize=auto;html=1;exitX=1;exitY=0.5;exitDx=0;exitDy=0;fillColor=#e1d5e7;strokeColor=#9673a6;endArrow=none;startFill=0;" edge="1" parent="1" source="TWUvUZ4dlO_ATVXOgSBD-56">
          <mxGeometry relative="1" as="geometry">
            <mxPoint x="614" y="334" as="targetPoint" />
            <mxPoint x="477" y="343" as="sourcePoint" />
            <Array as="points">
              <mxPoint x="614" y="409" />
            </Array>
          </mxGeometry>
        </mxCell>
      </root>
    </mxGraphModel>
  </diagram>
</mxfile>
